# xmcd CD database file
#
# Track frame offsets:
#	150
#	30345
#	50540
#	71542
#
# Disc length: 1240 seconds
#
# Revision: 0
# Processed by: cddbd v1.5.1PL0 Copyright (c) Steve Scherf et al.
# Submitted via: CDex 1.51
#
DISCID=2b04d604
DTITLE=JUN - マジックタイム
DYEAR=2003
DGENRE=JPop
TTITLE0=マジックタイム
TTITLE1=マジックタイム (radio edit)
TTITLE2=ガールフレンド
TTITLE3=マジックタイム (takkyu ishino remix)
EXTD=YEAR: 2003
EXTT0=
EXTT1=
EXTT2=
EXTT3=
PLAYORDER=
